<mxfile host="app.diagrams.net" modified="2021-05-04T20:51:14.692Z" agent="5.0 (X11; Linux x86_64) AppleWebKit/537.36 (KHTML, like Gecko) Chrome/87.0.4280.88 Safari/537.36" etag="TPw8te3iVkrjIAA1oIw5" version="14.6.9" type="github">
  <diagram id="XfbLYe7IzF915TAYHEYr" name="Page-1">
    <mxGraphModel dx="2221" dy="774" grid="1" gridSize="10" guides="1" tooltips="1" connect="1" arrows="1" fold="1" page="1" pageScale="1" pageWidth="850" pageHeight="1100" math="0" shadow="0">
      <root>
        <mxCell id="0" />
        <mxCell id="1" parent="0" />
        <mxCell id="n6Sp2NAK7NqwWLI4u37B-1" value="Proposal" style="rounded=1;whiteSpace=wrap;html=1;" parent="1" vertex="1">
          <mxGeometry x="305" y="180" width="120" height="100" as="geometry" />
        </mxCell>
        <mxCell id="KVztMswZeXNyQU55Q4_Z-19" style="edgeStyle=orthogonalEdgeStyle;rounded=0;orthogonalLoop=1;jettySize=auto;html=1;entryX=0;entryY=0.5;entryDx=0;entryDy=0;" parent="1" source="KVztMswZeXNyQU55Q4_Z-1" target="KVztMswZeXNyQU55Q4_Z-15" edge="1">
          <mxGeometry relative="1" as="geometry" />
        </mxCell>
        <mxCell id="KVztMswZeXNyQU55Q4_Z-1" value="User" style="shape=umlActor;verticalLabelPosition=bottom;verticalAlign=top;html=1;outlineConnect=0;" parent="1" vertex="1">
          <mxGeometry x="50" y="60" width="30" height="60" as="geometry" />
        </mxCell>
        <mxCell id="KVztMswZeXNyQU55Q4_Z-5" style="edgeStyle=orthogonalEdgeStyle;rounded=0;orthogonalLoop=1;jettySize=auto;html=1;entryX=0;entryY=0.5;entryDx=0;entryDy=0;" parent="1" source="KVztMswZeXNyQU55Q4_Z-4" target="KVztMswZeXNyQU55Q4_Z-16" edge="1">
          <mxGeometry relative="1" as="geometry">
            <Array as="points">
              <mxPoint x="110" y="230" />
              <mxPoint x="110" y="230" />
            </Array>
          </mxGeometry>
        </mxCell>
        <mxCell id="KVztMswZeXNyQU55Q4_Z-4" value="User" style="shape=umlActor;verticalLabelPosition=bottom;verticalAlign=top;html=1;outlineConnect=0;" parent="1" vertex="1">
          <mxGeometry x="50" y="190" width="30" height="60" as="geometry" />
        </mxCell>
        <mxCell id="KVztMswZeXNyQU55Q4_Z-8" value="Name&lt;br&gt;Author&lt;br&gt;Count of people&lt;br&gt;Status&lt;br&gt;Date, Time&lt;br&gt;Place" style="shape=card;whiteSpace=wrap;html=1;fillColor=#fff2cc;strokeColor=#d6b656;" parent="1" vertex="1">
          <mxGeometry x="400" y="10" width="120" height="120" as="geometry" />
        </mxCell>
        <mxCell id="KVztMswZeXNyQU55Q4_Z-10" value="Add&amp;nbsp;" style="triangle;whiteSpace=wrap;html=1;" parent="1" vertex="1">
          <mxGeometry x="510" y="190" width="60" height="80" as="geometry" />
        </mxCell>
        <mxCell id="KVztMswZeXNyQU55Q4_Z-11" value="Change&lt;br&gt;status" style="triangle;whiteSpace=wrap;html=1;" parent="1" vertex="1">
          <mxGeometry x="590" y="190" width="60" height="80" as="geometry" />
        </mxCell>
        <mxCell id="KVztMswZeXNyQU55Q4_Z-12" value="Delete" style="triangle;whiteSpace=wrap;html=1;" parent="1" vertex="1">
          <mxGeometry x="670" y="190" width="60" height="80" as="geometry" />
        </mxCell>
        <mxCell id="KVztMswZeXNyQU55Q4_Z-13" value="Subscribe" style="triangle;whiteSpace=wrap;html=1;" parent="1" vertex="1">
          <mxGeometry x="520" y="300" width="60" height="80" as="geometry" />
        </mxCell>
        <mxCell id="KVztMswZeXNyQU55Q4_Z-14" value="List" style="triangle;whiteSpace=wrap;html=1;" parent="1" vertex="1">
          <mxGeometry x="750" y="190" width="60" height="80" as="geometry" />
        </mxCell>
        <mxCell id="KVztMswZeXNyQU55Q4_Z-20" style="edgeStyle=orthogonalEdgeStyle;rounded=0;orthogonalLoop=1;jettySize=auto;html=1;entryX=0;entryY=0.25;entryDx=0;entryDy=0;" parent="1" source="KVztMswZeXNyQU55Q4_Z-15" target="n6Sp2NAK7NqwWLI4u37B-1" edge="1">
          <mxGeometry relative="1" as="geometry" />
        </mxCell>
        <mxCell id="KVztMswZeXNyQU55Q4_Z-15" value="Telegram" style="rounded=0;whiteSpace=wrap;html=1;" parent="1" vertex="1">
          <mxGeometry x="130" y="70" width="100" height="40" as="geometry" />
        </mxCell>
        <mxCell id="KVztMswZeXNyQU55Q4_Z-22" style="edgeStyle=orthogonalEdgeStyle;rounded=0;orthogonalLoop=1;jettySize=auto;html=1;entryX=0;entryY=0.5;entryDx=0;entryDy=0;" parent="1" source="KVztMswZeXNyQU55Q4_Z-16" target="n6Sp2NAK7NqwWLI4u37B-1" edge="1">
          <mxGeometry relative="1" as="geometry" />
        </mxCell>
        <mxCell id="KVztMswZeXNyQU55Q4_Z-16" value="Messenger" style="rounded=0;whiteSpace=wrap;html=1;" parent="1" vertex="1">
          <mxGeometry x="129" y="210" width="101" height="40" as="geometry" />
        </mxCell>
        <mxCell id="L2a3OnVKFjJWhFTSczmQ-3" style="edgeStyle=orthogonalEdgeStyle;rounded=0;orthogonalLoop=1;jettySize=auto;html=1;" parent="1" source="9MWAO0Z5Tc8hNkBbrKQH-2" target="9MWAO0Z5Tc8hNkBbrKQH-3" edge="1">
          <mxGeometry relative="1" as="geometry" />
        </mxCell>
        <mxCell id="9MWAO0Z5Tc8hNkBbrKQH-2" value="City" style="rounded=1;whiteSpace=wrap;html=1;" parent="1" vertex="1">
          <mxGeometry x="235" y="420" width="120" height="60" as="geometry" />
        </mxCell>
        <mxCell id="9MWAO0Z5Tc8hNkBbrKQH-3" value="Place" style="rounded=1;whiteSpace=wrap;html=1;" parent="1" vertex="1">
          <mxGeometry x="400" y="420" width="120" height="60" as="geometry" />
        </mxCell>
        <mxCell id="9MWAO0Z5Tc8hNkBbrKQH-4" value="&lt;b&gt;&lt;u&gt;Flows:&lt;/u&gt;&lt;/b&gt;&lt;br&gt;1) Користувач1 додав Пропозицію, Користувач2 погодився на неї&amp;nbsp;&lt;br&gt;&lt;ul&gt;&lt;li style=&quot;text-align: left&quot;&gt;Користувач1 отримує сповіщення,&lt;/li&gt;&lt;li style=&quot;text-align: left&quot;&gt;Користувач1 бачить інформацію про Користувача2&lt;/li&gt;&lt;li style=&quot;text-align: left&quot;&gt;Користувач1 приймає/відхиляє Заяву від Користувача2&lt;/li&gt;&lt;li style=&quot;text-align: left&quot;&gt;Користувач2 отримує нотіфікацію про зміну статусу&lt;/li&gt;&lt;li style=&quot;text-align: left&quot;&gt;Користувач1 и Користувач2 по бажанню створюють окремий чат&amp;nbsp;&lt;/li&gt;&lt;/ul&gt;" style="text;html=1;resizable=0;autosize=1;align=center;verticalAlign=middle;points=[];fillColor=#fff2cc;strokeColor=#d6b656;rounded=1;sketch=0;glass=0;" parent="1" vertex="1">
          <mxGeometry x="-290" y="485" width="420" height="130" as="geometry" />
        </mxCell>
        <mxCell id="L2a3OnVKFjJWhFTSczmQ-4" style="edgeStyle=orthogonalEdgeStyle;rounded=0;orthogonalLoop=1;jettySize=auto;html=1;entryX=1;entryY=0.5;entryDx=0;entryDy=0;" parent="1" source="L2a3OnVKFjJWhFTSczmQ-1" target="9MWAO0Z5Tc8hNkBbrKQH-3" edge="1">
          <mxGeometry relative="1" as="geometry" />
        </mxCell>
        <mxCell id="L2a3OnVKFjJWhFTSczmQ-1" value="Subscribe" style="rounded=1;whiteSpace=wrap;html=1;" parent="1" vertex="1">
          <mxGeometry x="610" y="435" width="120" height="100" as="geometry" />
        </mxCell>
        <mxCell id="L2a3OnVKFjJWhFTSczmQ-5" value="Applicant" style="rounded=1;whiteSpace=wrap;html=1;" parent="1" vertex="1">
          <mxGeometry x="305" y="290" width="120" height="100" as="geometry" />
        </mxCell>
      </root>
    </mxGraphModel>
  </diagram>
</mxfile>
